<svg xmlns="http://www.w3.org/2000/svg" width="24" height="24" viewBox="0 0 24 24" fill="none" stroke="currentColor" stroke-width="2" stroke-linecap="round" stroke-linejoin="round">
    <path d="M21.198 2.433a2.242 2.242 0 0 0-1.022.215l-8.609 3.33c-2.068.8-4.133 1.598-5.724 2.21a405.15 405.15 0 0 1-2.849 1.09c-.42.147-.99.332-1.473.901-.728.968.193 1.798.919 2.286 1.61.516 3.275 1.009 4.886 1.524.182.082.359.169.532.26.396.21.887.556 1.32.276.436-.28.608-.727.788-1.127 1.013-2.31 2.03-4.617 3.042-6.925.27-.613.533-1.226.796-1.838.066-.153.13-.306.224-.437.096-.134.262-.21.429-.19.18.02.31.15.388.295.077.145.097.314.095.477-.007.328-.14.642-.28.942-.744 1.597-1.49 3.192-2.233 4.788-.594 1.275-1.187 2.55-1.78 3.825-.112.24-.214.49-.26.757-.039.22-.039.45.03.663.13.401.436.705.807.905.37.2.778.315 1.187.39.817.15 1.645.12 2.461-.045 2.242-.453 4.484-.906 6.726-1.36.697-.14 1.394-.28 2.09-.42.582-.117 1.203-.234 1.657-.586.454-.351.7-.847.807-1.367.214-1.04.214-2.116.214-3.176V6.58c0-1.04 0-2.116-.214-3.176-.107-.52-.353-1.016-.807-1.367-.454-.352-1.075-.469-1.657-.586z"/>
</svg>
